<svg width="1376" height="130" viewBox="0 0 1376 130" fill="none" xmlns="http://www.w3.org/2000/svg">
<g clip-path="url(#clip0_3881_1883)">
<path d="M891.843 91.2066V4.25535C891.843 3.0995 890.894 2.15381 889.734 2.15381H887.381C886.221 2.15381 885.271 3.0995 885.271 4.25535V122.772C885.271 125.094 887.16 126.975 889.491 126.975H972.32C974.651 126.975 976.539 125.094 976.539 122.772V99.6127C976.539 97.2905 974.651 95.4097 972.32 95.4097H896.063C893.732 95.4097 891.843 93.5288 891.843 91.2066Z" fill="#00A89C"/>
<path d="M206.492 4.25535V117.959L125.804 3.18356C124.602 1.53385 121.986 2.38498 121.986 4.42347V124.884C121.986 126.04 122.935 126.985 124.096 126.985H210.965C212.125 126.985 213.074 126.04 213.074 124.884V4.25535C213.074 3.0995 212.125 2.15381 210.965 2.15381H208.612C207.452 2.15381 206.502 3.0995 206.502 4.25535H206.492Z" fill="#F05A23"/>
<path d="M343.72 6.35689C343.72 4.03469 341.832 2.15381 339.501 2.15381H246.767C244.436 2.15381 242.547 4.03469 242.547 6.35689V29.5159C242.547 31.8381 244.436 33.7189 246.767 33.7189H285.628C287.96 33.7189 289.848 35.5998 289.848 37.922V124.873C289.848 126.029 290.797 126.975 291.958 126.975H294.31C295.47 126.975 296.42 126.029 296.42 124.873V37.922C296.42 35.5998 298.308 33.7189 300.639 33.7189H339.501C341.832 33.7189 343.72 31.8381 343.72 29.5159V6.35689Z" fill="#FF7A1A"/>
<path d="M586.426 39.7188C586.521 19.0502 568.915 2.15381 548.166 2.15381H503.798C501.466 2.15381 499.578 4.03469 499.578 6.35689L499.557 122.772C499.557 125.094 501.445 126.975 503.777 126.975H576.13C579.506 126.975 581.521 123.213 579.633 120.418L554.01 82.5692C552.322 80.0684 553.746 76.7164 556.71 76.0965C573.62 72.5239 586.352 57.5819 586.437 39.7188H586.426ZM548.24 8.70011C565.086 8.70011 579.337 21.8347 579.844 38.605C580.361 56.0268 566.278 70.3698 548.904 70.3698H547.986C546.583 70.3698 545.275 69.6763 544.484 68.5204L508.429 15.2569C506.54 12.4619 508.545 8.70011 511.931 8.70011H548.25H548.24Z" fill="#F2C11A"/>
<path d="M654.128 85.2381C630.604 84.0192 612.038 63.7603 613.737 39.6767C615.203 18.7033 632.26 1.71234 653.316 0.251769C677.493 -1.42946 697.831 17.0536 699.055 40.4858C699.118 41.6941 698.158 42.7239 696.945 42.7239H694.582C693.464 42.7239 692.547 41.8623 692.483 40.7484C691.407 20.9519 674.213 5.35851 653.78 6.78756C635.963 8.02747 621.532 22.402 620.288 40.1495C618.864 60.5029 634.518 77.62 654.381 78.6918C655.489 78.7548 656.364 79.669 656.364 80.7828V83.1365C656.364 84.3449 655.341 85.3011 654.117 85.2381H654.128Z" fill="#8BCF2F"/>
<path d="M659.423 128.877C635.246 130.558 614.908 112.075 613.684 88.6427C613.621 87.4343 614.581 86.4046 615.794 86.4046H618.157C619.275 86.4046 620.193 87.2662 620.256 88.38C621.332 108.177 638.526 123.77 658.949 122.341C676.766 121.101 691.196 106.726 692.441 88.979C693.865 68.6255 678.211 51.498 658.347 50.4262C657.24 50.3632 656.364 49.449 656.364 48.3352V45.9814C656.364 44.7731 657.388 43.8169 658.611 43.8799C682.135 45.0988 700.701 65.3576 699.002 89.4413C697.536 110.415 680.479 127.406 659.423 128.866V128.877Z" fill="#8BCF2F"/>
<path d="M792.369 129.119C828.164 129.119 857.181 100.214 857.181 64.5593C857.181 28.9042 828.164 0 792.369 0C756.575 0 727.558 28.9042 727.558 64.5593C727.558 100.214 756.575 129.119 792.369 129.119Z" fill="#188F50"/>
<path d="M1062.18 129.119C1097.98 129.119 1127 100.214 1127 64.5593C1127 28.9042 1097.98 0 1062.18 0C1026.39 0 997.373 28.9042 997.373 64.5593C997.373 100.214 1026.39 129.119 1062.18 129.119Z" fill="#299ADE"/>
<path d="M1371.78 2.15381H1281.39C1278.14 2.15381 1276.11 5.65287 1277.74 8.45843L1323.3 87.0665V124.873C1323.3 126.029 1324.25 126.975 1325.41 126.975H1327.76C1328.92 126.975 1329.87 126.029 1329.87 124.873V87.0665L1375.43 8.45843C1377.06 5.65287 1375.03 2.15381 1371.78 2.15381Z" fill="#D95939"/>
<path d="M1251.3 65.6731H1206.14C1204.33 65.6731 1202.85 67.1442 1202.85 68.9515V117.613C1202.85 120.219 1200.49 122.236 1197.92 121.753C1192.93 120.818 1188.18 119.052 1183.74 116.478C1176.77 112.422 1171.16 106.853 1167.09 99.9072C1163.03 92.9826 1160.97 85.3015 1160.97 77.095V52.0446C1160.97 43.8276 1163.03 36.157 1167.09 29.2324C1171.16 22.2868 1176.75 16.7072 1183.73 12.6618C1190.69 8.6163 1198.4 6.56729 1206.63 6.56729C1213.58 6.56729 1220 7.72314 1225.71 9.9928C1231.39 12.252 1236.26 15.5514 1240.2 19.786C1243.48 23.3691 1246.19 27.4356 1248.25 31.8698C1249.96 35.537 1250.95 39.2673 1251.21 42.9975C1251.28 44.0903 1252.2 44.9414 1253.31 44.9414H1255.67C1256.89 44.9414 1257.86 43.9117 1257.78 42.6928C1257.48 38.1114 1256.29 33.5616 1254.21 29.1063C1251.86 24.0626 1248.78 19.4392 1245.03 15.3517C1240.41 10.3816 1234.72 6.52526 1228.14 3.90885C1221.65 1.32395 1214.4 0.0209961 1206.62 0.0209961C1197.2 0.0209961 1188.38 2.37472 1180.4 7.00862C1172.44 11.632 1166.05 18.0102 1161.4 25.9435C1156.74 33.8873 1154.38 42.6718 1154.38 52.0551V77.1055C1154.38 86.4994 1156.74 95.2838 1161.4 103.217C1166.04 111.15 1172.44 117.518 1180.4 122.152C1188.39 126.786 1197.21 129.14 1206.62 129.14C1214.4 129.14 1221.65 127.826 1228.14 125.252C1234.72 122.635 1240.41 118.79 1245.04 113.788C1248.77 109.711 1251.86 105.088 1254.2 100.044C1256.62 94.874 1257.84 89.5466 1257.84 84.2192V68.962C1257.84 67.1547 1256.37 65.6836 1254.55 65.6836H1251.26L1251.3 65.6731Z" fill="#B86AF0"/>
<path d="M87.0483 33.7189C89.369 33.7189 91.2678 31.8276 91.2678 29.5159V6.35689C91.2678 4.04519 89.369 2.15381 87.0483 2.15381H4.2195C1.89877 2.15381 0 4.04519 0 6.35689V123.15C0 125.252 1.89877 126.975 4.2195 126.975H87.0483C89.369 126.975 91.2678 125.083 91.2678 122.772V99.6127C91.2678 97.301 89.369 95.4097 87.0483 95.4097H34.621C32.3003 95.4097 30.4015 93.5183 30.4015 91.2066V78.1665C30.4015 75.8548 32.3003 73.9634 34.621 73.9634H77.1535C79.4743 73.9634 81.373 72.072 81.373 69.7604V59.2316C81.373 56.9199 79.4743 55.0286 77.1535 55.0286H34.621C32.3003 55.0286 30.4015 53.1372 30.4015 50.8255V37.922C30.4015 35.6103 32.3003 33.7189 34.621 33.7189H87.0483Z" fill="#EC5578"/>
<path d="M462.71 33.7189C465.031 33.7189 466.93 31.8276 466.93 29.5159V6.35689C466.93 4.04519 465.031 2.15381 462.71 2.15381H379.882C377.561 2.15381 375.662 4.04519 375.662 6.35689V123.15C375.662 125.252 377.561 126.975 379.882 126.975H462.71C465.031 126.975 466.93 125.083 466.93 122.772V99.6127C466.93 97.301 465.031 95.4097 462.71 95.4097H410.283C407.962 95.4097 406.064 93.5183 406.064 91.2066V78.1665C406.064 75.8548 407.962 73.9634 410.283 73.9634H452.816C455.136 73.9634 457.035 72.072 457.035 69.7604V59.2316C457.035 56.9199 455.136 55.0286 452.816 55.0286H410.283C407.962 55.0286 406.064 53.1372 406.064 50.8255V37.922C406.064 35.6103 407.962 33.7189 410.283 33.7189H462.71Z" fill="#F8B95A"/>
</g>
<defs>
<clipPath id="clip0_3881_1883">
<rect width="1376" height="129.634" fill="white"/>
</clipPath>
</defs>
</svg>
