<?xml version="1.0" encoding="UTF-8"?><svg id="_レイヤー_2" xmlns="http://www.w3.org/2000/svg" viewBox="0 0 203.55 43.96"><defs><style>.cls-1{fill:#231815;}</style></defs><g id="logo_data"><path class="cls-1" d="M106.41,13.89h-2.5v12.04c0,3.24,1.43,4.68,4.65,4.68h.28v-2.44h-.28c-1.49,0-2.15-.39-2.15-2.71v-4.59h3.15v-2.44h-3.15v-4.54Z"/><path class="cls-1" d="M138.09,18.82c-1.43,0-2.65.55-3.53,1.6v-6.53h-2.5v16.57h2.5v-5.16c0-2.23,1.59-4.04,3.53-4.04,1.26,0,2.2.51,2.87,1.56.47.73.67,1.57.67,2.81v4.83h2.5v-4.83c0-1.7-.32-2.96-1.04-4.1-1.13-1.78-2.85-2.71-4.99-2.71Z"/><path class="cls-1" d="M196.82,18.03c-1.37,0-2.98.62-4.23,1.63v-5.77h-2.5v9.91c0,.54.04,1.11.11,1.59.49,3.35,3.15,5.6,6.62,5.6,3.71,0,6.73-2.91,6.73-6.48s-3.02-6.48-6.73-6.48ZM196.82,28.6c-1.14,0-2.19-.43-2.97-1.22-.76-.77-1.17-1.78-1.16-2.87.02-2.27,1.84-4.07,4.14-4.09h.03c1.13,0,2.19.43,2.99,1.23.78.77,1.21,1.79,1.21,2.86,0,2.25-1.9,4.09-4.23,4.09Z"/><path class="cls-1" d="M124.66,26.12l-.12.22h0c-.73,1.37-2.17,2.21-3.75,2.21-2.33,0-4.23-1.82-4.23-4.05s1.9-4.04,4.23-4.04c1.63,0,3.13.92,3.82,2.35l.13.27,2.11-1.18.06-.03-.13-.24c-1.16-2.22-3.45-3.6-6-3.6-3.71,0-6.73,2.91-6.73,6.48s3.02,6.48,6.73,6.48c2.57,0,4.96-1.46,6.07-3.73l.14-.28-2.29-.83-.06-.02Z"/><path class="cls-1" d="M91.7,18.03c-3.9,0-6.73,2.73-6.73,6.48s2.89,6.48,6.73,6.48c1.58,0,3.18-.71,4.32-1.92v1.37l2.41.02v-6.23h-.02c-.22-3.1-2.37-6.2-6.71-6.2ZM91.7,28.57c-2.31,0-4.19-1.82-4.19-4.06s1.88-4.06,4.19-4.06,4.19,1.82,4.19,4.06c0,2.35-1.76,4.06-4.19,4.06Z"/><path class="cls-1" d="M182.55,23.83c0,1.3-.32,2.61-.8,3.27-.7.97-1.91,1.31-2.74,1.31h-.42c-.82,0-2.03-.34-2.74-1.31-.48-.66-.8-1.97-.8-3.27v-5.14h-2.5v4.81c0,2.35.3,3.79,1.04,4.95,1.12,1.77,3.32,2.4,5,2.4h.42c1.68,0,3.87-.63,5-2.4.74-1.16,1.04-2.6,1.04-4.95v-4.81h-2.5v5.14Z"/><path class="cls-1" d="M74.56,13.89h-.39c-1.43,0-3.25.78-4.36,2.24-1.12-1.46-2.93-2.24-4.36-2.24h-.39c-1.58,0-3.64.63-4.7,2.4-.7,1.16-.98,2.6-.98,4.95v9.22h2.63v-9.43c0-1.28.28-2.58.69-3.23.61-.96,1.66-1.3,2.37-1.3h.36c.71,0,1.76.34,2.37,1.3.41.65.69,1.95.69,3.23v9.43h2.64v-9.43c0-1.28.28-2.58.69-3.23.61-.96,1.66-1.3,2.37-1.3h.36c.71,0,1.76.34,2.37,1.3.41.65.69,1.95.69,3.23v9.43h2.63v-9.22c0-2.35-.28-3.79-.98-4.95-1.06-1.77-3.12-2.4-4.7-2.4Z"/><path class="cls-1" d="M164.64,22.13c-.58.18-2.57.74-5.64.74s-5.24-.61-5.71-.76v-8.22h-2.5v16.57h2.5v-5.67c.47.1,2.51.49,5.71.49s5.06-.36,5.64-.48v5.65h2.5V13.89h-2.5v8.25Z"/><path class="cls-1" d="M41.04,27.88c.32-2.5-.95-4.39-2.11-5.55-.07-.07-.06-.17.01-.23l1.71-1.44c.08-.07.19-.06.26,0,1.25,1.33,3.12,3.97,2.66,7.53-.45,3.57-2.92,5.65-4.46,6.63-.09.05-.19.03-.25-.06l-1.29-1.82c-.05-.08-.03-.18.05-.22,1.42-.83,3.12-2.34,3.43-4.84h0Z"/><path class="cls-1" d="M39.77,12.58c-1.51-2.02-3.73-2.49-5.38-2.52-.09,0-.16-.08-.15-.17l.23-2.23c.01-.1.09-.18.19-.17,1.82.09,5,.68,7.15,3.56,2.16,2.87,1.83,6.1,1.4,7.86-.02.1-.12.15-.22.14l-2.2-.41c-.09-.02-.15-.1-.12-.19.44-1.58.61-3.86-.9-5.87h0Z"/><path class="cls-1" d="M28.03,2.61c-2.49-.37-4.4.87-5.59,2.02-.07.06-.17.06-.23-.02l-1.41-1.73c-.06-.08-.06-.19.01-.26,1.35-1.22,4.02-3.05,7.58-2.53,3.56.51,5.6,3.02,6.55,4.57.05.09.02.19-.06.25l-1.85,1.26c-.08.05-.18.03-.22-.05-.81-1.43-2.29-3.16-4.79-3.52h0Z"/><path class="cls-1" d="M12.37,4.14c-2,1.54-2.43,3.77-2.43,5.42,0,.09-.08.16-.17.15l-2.23-.19c-.1,0-.18-.09-.18-.19.06-1.82.6-5.01,3.44-7.21C13.64-.07,16.87.2,18.65.6c.1.02.16.12.14.22l-.37,2.21c-.02.09-.1.15-.19.13-1.59-.41-3.87-.55-5.85,1h0Z"/><path class="cls-1" d="M2.6,16.06c-.33,2.5.95,4.39,2.11,5.55.07.07.06.17-.01.23l-1.71,1.44c-.08.07-.19.06-.26,0-1.24-1.33-3.11-3.97-2.65-7.53.45-3.57,2.93-5.65,4.46-6.62.09-.05.19-.03.25.06l1.29,1.83c.05.08.03.18-.05.22-1.42.83-3.12,2.34-3.44,4.84h0Z"/><path class="cls-1" d="M3.88,31.39c1.51,2.02,3.74,2.49,5.38,2.51.09,0,.16.08.15.17l-.22,2.23c-.01.1-.09.18-.19.17-1.82-.08-5-.68-7.15-3.56C-.32,30.04,0,26.82.42,25.05c.02-.1.12-.15.22-.14l2.2.41c.09.02.15.1.12.19-.44,1.58-.61,3.86.91,5.87h0Z"/><path class="cls-1" d="M15.63,41.35c2.49.36,4.4-.88,5.58-2.03.07-.06.17-.06.23.01l1.42,1.73c.06.08.06.19-.01.26-1.34,1.22-4.01,3.06-7.57,2.54-3.56-.5-5.61-3.01-6.56-4.56-.05-.09-.02-.19.06-.25l1.84-1.27c.08-.05.18-.03.22.05.81,1.43,2.3,3.16,4.79,3.51h0Z"/><path class="cls-1" d="M31.28,39.82c2-1.53,2.44-3.77,2.44-5.41,0-.09.08-.16.17-.15l2.23.19c.1,0,.18.09.18.19-.06,1.82-.61,5.01-3.46,7.2-2.84,2.2-6.07,1.92-7.84,1.52-.1-.02-.16-.12-.14-.22l.38-2.2c.02-.09.1-.15.19-.12,1.59.42,3.86.56,5.86-.98h0Z"/></g></svg>