<?xml version="1.0" encoding="UTF-8"?><svg id="_レイヤー_2" xmlns="http://www.w3.org/2000/svg" viewBox="0 0 134.72 169.72"><defs><style>.cls-1{fill:#231815;}</style></defs><g id="logo_data"><path class="cls-1" d="M134.5,87.33c-1.35,10.78-8.75,17.1-13.69,20.19-.2.13-.46.07-.6-.13l-3.19-4.5c-.13-.18-.07-.42.11-.53,4.56-2.65,10.17-7.54,11.2-15.82,1.07-8.28-3.13-14.42-6.88-18.12-.15-.15-.14-.4.02-.54l4.22-3.56c.18-.15.45-.15.61.03,4.01,4.22,9.59,12.2,8.2,22.98Z"/><path class="cls-1" d="M129.18,34.23c6.52,8.68,5.61,18.38,4.2,24.03-.06.23-.28.37-.52.32l-5.42-1.01c-.21-.04-.34-.25-.29-.46,1.43-5.07,2.06-12.49-2.95-19.16-4.99-6.7-12.28-8.18-17.55-8.23-.22,0-.38-.19-.36-.4l.56-5.49c.02-.24.22-.42.46-.41,5.82.24,15.38,2.1,21.87,10.8Z"/><path class="cls-1" d="M87.78.28c10.75,1.54,16.95,9.04,19.95,14.03.12.2.06.46-.14.6l-4.55,3.12c-.18.12-.42.07-.52-.12-2.57-4.6-7.36-10.29-15.63-11.47-8.26-1.21-14.47,2.89-18.24,6.57-.15.15-.4.14-.54-.03l-3.48-4.28c-.15-.18-.14-.45.04-.61,4.29-3.94,12.36-9.38,23.11-7.81Z"/><path class="cls-1" d="M33.45,6.5C42.03-.17,51.74.59,57.41,1.9c.23.05.37.28.33.51l-.92,5.44c-.04.21-.24.35-.45.29-5.1-1.35-12.52-1.86-19.11,3.27-6.61,5.1-7.97,12.41-7.94,17.68,0,.22-.18.38-.4.36l-5.5-.47c-.24-.02-.42-.21-.41-.45.15-5.82,1.84-15.41,10.44-22.05Z"/><path class="cls-1" d="M.22,48.48c1.36-10.77,8.76-17.1,13.71-20.18.2-.13.46-.07.6.13l3.19,4.5c.13.18.07.42-.11.53-4.56,2.65-10.17,7.53-11.21,15.81-1.08,8.28,3.13,14.42,6.87,18.13.15.15.14.4-.02.54l-4.22,3.55c-.18.15-.45.14-.61-.03C4.4,67.23-1.18,59.25.22,48.48Z"/><path class="cls-1" d="M5.55,101.58C-.98,92.9-.08,83.21,1.32,77.55c.06-.23.28-.37.52-.33l5.43,1.01c.21.04.34.25.29.46-1.43,5.07-2.05,12.49,2.97,19.16,4.99,6.69,12.29,8.16,17.56,8.21.22,0,.38.19.36.4l-.55,5.49c-.02.24-.22.42-.46.41-5.82-.24-15.38-2.08-21.88-10.78Z"/><path class="cls-1" d="M46.98,135.47c-10.75-1.51-16.97-9.01-19.98-14-.12-.2-.06-.46.14-.6l4.55-3.13c.18-.12.42-.07.52.12,2.58,4.6,7.38,10.28,15.65,11.44,8.26,1.2,14.46-2.92,18.22-6.61.15-.15.4-.14.54.03l3.49,4.27c.15.18.14.45-.04.61-4.28,3.95-12.35,9.41-23.1,7.85Z"/><path class="cls-1" d="M101.21,129.28c-8.59,6.65-18.29,5.87-23.97,4.54-.23-.05-.37-.28-.33-.51l.94-5.44c.04-.21.24-.35.45-.29,5.09,1.36,12.51,1.89,19.12-3.22,6.62-5.08,8-12.39,7.99-17.66,0-.22.18-.38.4-.36l5.5.48c.24.02.42.21.41.45-.16,5.82-1.88,15.41-10.49,22.02Z"/><path class="cls-1" d="M44.94,154.42h-2.24v10.77c0,2.9,1.28,4.19,4.16,4.19h.25v-2.18h-.25c-1.33,0-1.92-.35-1.92-2.43v-4.11h2.82v-2.18h-2.82v-4.06Z"/><path class="cls-1" d="M73.28,158.83c-1.28,0-2.37.49-3.16,1.43v-5.85h-2.24v14.83h2.24v-4.62c0-2,1.42-3.62,3.16-3.62,1.13,0,1.97.46,2.57,1.4.42.66.6,1.41.6,2.51v4.33h2.24v-4.33c0-1.52-.29-2.65-.93-3.66-1.01-1.59-2.55-2.43-4.47-2.43Z"/><path class="cls-1" d="M125.83,158.12c-1.23,0-2.66.56-3.78,1.46v-5.17h-2.24v8.87c0,.48.03.99.1,1.42.44,3,2.82,5.01,5.92,5.01,3.32,0,6.02-2.6,6.02-5.8s-2.7-5.8-6.02-5.8ZM125.83,167.58c-1.02,0-1.96-.39-2.66-1.09-.68-.69-1.05-1.6-1.04-2.56.02-2.03,1.64-3.64,3.7-3.66h.03c1.01,0,1.96.39,2.67,1.1.7.69,1.08,1.6,1.08,2.56,0,2.02-1.7,3.66-3.78,3.66Z"/><path class="cls-1" d="M61.27,165.37l-.1.19h0c-.66,1.22-1.94,1.98-3.35,1.98-2.09,0-3.79-1.62-3.79-3.62s1.7-3.62,3.79-3.62c1.46,0,2.8.82,3.42,2.1l.12.24,1.88-1.05.06-.03-.11-.22c-1.03-1.99-3.09-3.22-5.37-3.22-3.32,0-6.02,2.6-6.02,5.8s2.7,5.8,6.02,5.8c2.3,0,4.44-1.31,5.43-3.34l.12-.25-2.04-.75-.05-.02Z"/><path class="cls-1" d="M31.77,158.12c-3.49,0-6.02,2.44-6.02,5.8s2.59,5.8,6.02,5.8c1.41,0,2.84-.64,3.86-1.71v1.23h2.16s0-5.56,0-5.56h-.02c-.19-2.77-2.12-5.55-6-5.55ZM31.77,167.56c-2.07,0-3.75-1.63-3.75-3.64s1.68-3.63,3.75-3.63,3.75,1.63,3.75,3.63c0,2.11-1.58,3.64-3.75,3.64Z"/><path class="cls-1" d="M113.06,163.32c0,1.16-.29,2.34-.71,2.92-.63.87-1.71,1.18-2.45,1.18h-.37c-.74,0-1.82-.31-2.45-1.18-.43-.59-.71-1.77-.71-2.92v-4.6h-2.24v4.31c0,2.11.27,3.39.93,4.43,1,1.58,2.97,2.15,4.47,2.15h.37c1.5,0,3.47-.56,4.47-2.15.66-1.04.93-2.32.93-4.43v-4.31h-2.24v4.6Z"/><path class="cls-1" d="M16.44,154.42h-.35c-1.28,0-2.9.7-3.9,2-1-1.3-2.63-2-3.9-2h-.35c-1.41,0-3.26.56-4.2,2.15-.62,1.04-.87,2.32-.87,4.43v8.25h2.36v-8.44c0-1.14.25-2.3.62-2.89.54-.86,1.48-1.16,2.12-1.16h.32c.64,0,1.57.3,2.12,1.16.37.58.62,1.74.62,2.89v8.44h2.36v-8.44c0-1.14.25-2.3.62-2.89.54-.86,1.48-1.16,2.12-1.16h.32c.64,0,1.57.3,2.12,1.16.37.58.62,1.74.62,2.89v8.44h2.36v-8.25c0-2.11-.25-3.39-.88-4.43-.94-1.58-2.79-2.15-4.21-2.15Z"/><path class="cls-1" d="M97.04,161.8c-.52.17-2.3.66-5.04.66s-4.69-.54-5.11-.68v-7.36h-2.24v14.83h2.24v-5.07c.42.09,2.24.44,5.11.44s4.52-.32,5.04-.43v5.06h2.24v-14.83h-2.24v7.38Z"/></g></svg>