<?xml version="1.0" encoding="UTF-8"?><svg id="_レイヤー_2" xmlns="http://www.w3.org/2000/svg" viewBox="0 0 208.23 48.93"><defs><style>.cls-1{fill:#0e8c99;}.cls-2{fill:#231815;}</style></defs><g id="logo_data"><path class="cls-2" d="M77.26,16.37c-9.73,0-15.24,5.86-15.24,12.85v.07c0,6.99,5.69,12.77,15.15,12.77s15.24-5.86,15.24-12.85v-.07c0-6.99-5.5-12.77-15.15-12.77ZM86,29.28c0,4.2-3.59,7.6-8.74,7.6s-8.81-3.46-8.81-7.66v-.06c0-4.2,3.59-7.6,8.74-7.6s8.81,3.46,8.81,7.66v.06Z"/><path class="cls-2" d="M138.11,34.95c-.5-6.97-6.4-12.37-16.02-11.71-9.71.67-14.78,6.88-14.29,13.86v.07c.5,6.97,6.59,12.35,16.03,11.71,9.5-.65,14.78-6.88,14.29-13.86v-.07ZM123.54,43.71c-5.13.35-9.04-2.85-9.34-7.04v-.06c-.3-4.19,3.04-7.83,8.17-8.18,5.13-.35,9.04,2.85,9.34,7.04v.06c.3,4.19-3.04,7.83-8.17,8.18Z"/><path class="cls-2" d="M178.48,32.28c-8.04,0-13.58-5.15-15.8-7.65h-5.41v23.33h5.76v-12.56c0-.23,0-.44.03-.62.08-.65.51-1.05,1.38-.51,2.54,1.55,6.9,3.9,14.04,3.9s11.5-2.35,14.04-3.9c.87-.53,1.3-.14,1.38.51.02.19.03.4.03.62v12.56h5.76v-23.33h-5.49c-2.19,2.5-7.69,7.65-15.73,7.65Z"/><path class="cls-2" d="M21.21,32.28c-8.04,0-13.58-5.15-15.8-7.65H0v23.33h5.76v-12.56c0-.23,0-.44.03-.62.08-.65.51-1.05,1.38-.51,2.54,1.55,6.9,3.9,14.04,3.9s11.5-2.35,14.04-3.9c.87-.53,1.3-.14,1.38.51.02.19.03.4.03.62v12.56h5.76v-23.33h-5.49c-2.19,2.5-7.69,7.65-15.73,7.65Z"/><circle class="cls-1" cx="202.12" cy="6.11" r="6.11"/></g></svg>