<?xml version="1.0" encoding="UTF-8"?>
<svg id="_レイヤー_2" data-name="レイヤー_2" xmlns="http://www.w3.org/2000/svg" xmlns:xlink="http://www.w3.org/1999/xlink" viewBox="0 0 313.21 62.34">
  <defs>
    <style>
      .cls-1 {
        fill: none;
      }

      .cls-2 {
        fill: #2820d4;
      }

      .cls-3 {
        clip-path: url(#clippath);
      }
    </style>
    <clipPath id="clippath">
      <rect class="cls-1" width="313.21" height="62.34"/>
    </clipPath>
  </defs>
  <g id="FMT">
    <g class="cls-3">
      <g>
        <path class="cls-2" d="M42.32,24.97c0-4.94-3-9.25-10-9.25H15.45v5.4h17.05c3,0,4.33,1.88,4.33,4.07s-1.24,4.3-4.33,4.3h-12.12c-3.41,0-4.88,1.42-4.88,4.9v12.22h5.44v-11.17c0-.55.28-.78.78-.78h8.11l7.1,11.95h6.04l-7.23-12.36c4.75-1.33,6.59-5.45,6.59-9.29Z"/>
        <path class="cls-2" d="M89.6,28.45h-7.28c-3.64,0-4.61-1.79-4.61-3.66,0-2.15,1.24-3.66,4.06-3.66h15.94v-5.4h-15.76c-6.91,0-9.68,3.75-9.68,8.88,0,4.3,1.93,8.93,10.23,8.93h7.23c3.83,0,4.88,1.83,4.88,3.85,0,2.24-1.34,3.85-4.29,3.85h-20.23s-15.76,0-15.76,0c-3.18,0-4.7-1.47-4.7-3.89s1.61-3.75,4.75-3.75h15.44v-4.9h-15.3c-3.14,0-4.75-1.14-4.75-3.66,0-2.38,1.43-3.89,4.7-3.89h15.58v-5.4h-15.58c-7.33,0-10.42,3.48-10.42,8.42,0,3.39,1.48,5.77,4.38,6.96-2.86,1.19-4.47,3.57-4.47,7.09,0,4.81,3,8.42,10.37,8.42h12.51s8.38.01,8.38.01h0s14.92-.01,14.92-.01c7.1,0,9.91-3.85,9.91-9.06,0-4.44-1.98-9.11-10.46-9.11h0Z"/>
        <path class="cls-2" d="M119.32,15.72h-4.24c-9.03,0-14.06,5.13-14.06,15.52s4.98,15.38,14.06,15.38h4.24c9.08,0,14.06-5.04,14.06-15.38s-5.03-15.52-14.06-15.52ZM119.32,41.22h-4.24c-6.04,0-8.62-2.93-8.62-9.98s2.63-10.12,8.62-10.12h4.24c5.99,0,8.57,3.02,8.57,10.07s-2.58,10.02-8.57,10.02Z"/>
        <path class="cls-2" d="M162.96,40.17c0,1.05-.69,1.74-1.84,1.74-1.01,0-1.61-.55-1.98-1.28l-9.08-19.73c-1.29-3.52-3.22-5.72-7.56-5.72-4.84,0-7.14,2.7-7.14,6.73v24.72h5.44v-24.45c0-1.1.65-1.79,1.89-1.79.97,0,1.52.41,1.94,1.33l9.08,19.73c1.29,3.52,3.27,5.72,7.6,5.72,4.79,0,7.14-2.7,7.14-6.78V15.72h-5.49v24.44h0Z"/>
        <path class="cls-2" d="M186.09,15.17c-3.27,0-5.39,1.1-6.54,3.98l-10.92,27.46h5.99l9.86-24.86c.32-.73.83-1.05,1.57-1.05s1.24.32,1.52,1.05l9.45,24.86h6.04l-10.51-27.46c-1.11-2.88-3.22-3.98-6.45-3.98h0Z"/>
        <path class="cls-2" d="M196.92,21.12h9.08v25.5h5.49v-25.5h9.08v-5.4h-23.64v5.4Z"/>
        <path class="cls-2" d="M228.12,15.72h-5.44v30.9h5.44V15.72Z"/>
        <path class="cls-2" d="M248.63,15.72h-4.24c-9.03,0-14.06,5.13-14.06,15.52s4.98,15.38,14.06,15.38h4.24c9.08,0,14.06-5.04,14.06-15.38s-5.02-15.52-14.06-15.52ZM248.63,41.22h-4.24c-6.04,0-8.62-2.93-8.62-9.98s2.63-10.12,8.62-10.12h4.24c5.99,0,8.57,3.02,8.57,10.07s-2.58,10.02-8.57,10.02Z"/>
        <path class="cls-2" d="M292.27,15.72v24.44c0,1.05-.69,1.74-1.84,1.74-1.01,0-1.61-.55-1.98-1.28l-9.08-19.73c-1.29-3.52-3.22-5.72-7.56-5.72-4.84,0-7.14,2.7-7.14,6.73v24.72h5.44v-24.45c0-1.1.65-1.79,1.89-1.79.97,0,1.52.41,1.94,1.33l9.08,19.73c1.29,3.52,3.27,5.72,7.6,5.72,4.79,0,7.14-2.7,7.14-6.78V15.72h-5.49Z"/>
      </g>
    </g>
  </g>
</svg>